<svg version="1.1" id="Layer_1" xmlns="http://www.w3.org/2000/svg" xmlns:xlink="http://www.w3.org/1999/xlink" x="0px" y="0px"
	 width="100%" viewBox="0 0 621 153" enable-background="new 0 0 621 153" xml:space="preserve">
<path fill="#2B2C31" opacity="1.000000" stroke="none" 
	d="
M410.000000,154.000000 
	C273.333344,154.000000 137.166672,154.000000 1.000000,154.000000 
	C1.000000,103.000000 1.000000,52.000000 1.000000,1.000000 
	C208.000000,1.000000 415.000000,1.000000 622.000000,1.000000 
	C622.000000,52.000000 622.000000,103.000000 622.000000,154.000000 
	C551.500000,154.000000 481.000000,154.000000 410.000000,154.000000 
M494.690887,82.556656 
	C498.737640,74.378960 501.609711,73.660080 514.318298,77.773705 
	C514.502258,77.174835 514.847229,76.578659 514.842896,75.985031 
	C514.794495,69.343414 517.283875,64.243080 523.779419,61.848759 
	C530.598755,59.335102 536.047546,61.566551 540.671021,66.934013 
	C544.326782,71.178040 549.230713,66.663795 553.440186,68.163330 
	C553.784363,68.285957 555.403748,65.549240 556.049744,63.983955 
	C559.458374,55.724613 567.475464,51.369461 575.280762,53.669235 
	C583.051270,55.958748 588.992615,64.031364 586.024048,71.317619 
	C582.904846,78.973633 585.143616,83.902222 589.950684,89.021194 
	C590.061340,89.139069 590.105835,89.316307 590.200134,89.452774 
	C591.920654,91.943161 598.836914,93.687645 602.478149,91.664665 
	C603.988281,90.825638 604.875000,87.651985 604.893860,85.529854 
	C605.070923,65.538994 604.885132,45.544804 605.084473,25.554367 
	C605.130066,20.978693 603.571655,19.334667 599.056824,19.345039 
	C560.071838,19.434597 521.086426,19.445604 482.101562,19.330704 
	C477.337891,19.316664 475.726135,21.040134 475.773773,25.790274 
	C475.967590,45.114326 475.843750,64.441490 475.854156,83.767494 
	C475.858643,92.119179 475.877563,92.119164 484.051636,92.149406 
	C493.249420,92.183426 493.249420,92.183434 494.690887,82.556656 
M533.102173,87.144745 
	C529.365173,86.763908 525.635193,86.247765 521.888550,86.054642 
	C519.753296,85.944572 516.848877,85.591446 515.643616,86.752289 
	C514.369019,87.979919 514.588745,90.863976 514.370422,93.045967 
	C514.227844,94.471191 514.467773,95.934669 514.569275,98.075897 
	C512.893433,97.328728 512.119690,97.091629 511.460754,96.673515 
	C503.625916,91.702202 495.317322,95.900673 494.810455,105.070152 
	C494.598358,108.907303 495.982758,111.119583 500.153595,111.115761 
	C527.308167,111.090874 554.462891,111.149979 581.617188,111.070015 
	C586.435791,111.055832 589.559509,108.194557 588.703918,103.495407 
	C587.749878,98.254898 586.153992,92.661865 583.187561,88.360107 
	C577.895264,80.685699 568.079163,79.651489 561.312561,85.952194 
	C557.302856,89.685875 553.951843,92.616791 548.244019,90.472641 
	C547.450928,90.174706 546.140442,90.529327 545.364929,91.035004 
	C542.061523,93.189148 539.591736,92.210068 537.212463,89.462021 
	C536.390137,88.512260 534.965210,88.084221 533.102173,87.144745 
M324.110535,76.947723 
	C324.550079,75.170860 324.999023,73.396263 325.427521,71.616745 
	C327.062653,64.825256 325.156219,58.420013 320.780060,55.978168 
	C315.933289,53.273746 308.856476,55.064518 304.181152,60.316177 
	C302.244476,62.491615 300.532654,64.867241 298.391479,67.563766 
	C298.023529,65.663155 297.831879,64.373726 297.520233,63.113976 
	C295.912048,56.613113 290.963867,53.349152 284.786835,55.790314 
	C281.327911,57.157299 278.424377,60.240051 275.665710,62.951710 
	C274.020599,64.568817 273.140839,66.964561 271.392395,69.887283 
	C271.118622,65.799232 271.186829,62.820503 270.659882,59.951073 
	C269.984955,56.275780 267.434448,54.550426 263.722809,55.144600 
	C259.769867,55.777397 257.037872,58.069885 256.156342,62.066284 
	C256.002197,62.765148 256.750000,64.162117 257.427155,64.466072 
	C262.750641,66.855667 263.099701,71.627953 262.855377,76.307640 
	C262.561798,81.929573 261.535828,87.510468 260.947479,93.121765 
	C260.801971,94.509438 260.729889,96.941444 261.303894,97.167564 
	C262.837128,97.771553 265.415009,98.180321 266.356812,97.323959 
	C268.394379,95.471222 270.456512,92.977943 271.108246,90.393524 
	C273.085785,82.551582 275.298767,74.892525 281.253937,69.091904 
	C282.588470,67.792030 285.379150,66.726234 286.910736,67.255692 
	C288.349060,67.752922 289.884216,70.516640 289.855682,72.258186 
	C289.747223,78.886063 288.910614,85.498627 288.601044,92.128807 
	C288.513306,94.008293 289.291931,95.928238 289.673248,97.829628 
	C292.026215,96.998749 295.504028,96.835220 296.481171,95.188133 
	C298.147705,92.378975 298.921051,88.624008 298.850311,85.292244 
	C298.727142,79.490623 301.060822,74.960220 304.606781,70.860428 
	C307.168060,67.899109 310.425415,64.986328 314.508087,66.920975 
	C318.904114,69.004097 316.711029,73.194672 316.287506,76.709351 
	C315.734192,81.301437 314.805634,85.948746 315.068390,90.513000 
	C315.388458,96.071609 319.786102,99.335266 324.687958,97.789864 
	C326.803497,97.122894 328.734406,94.650932 329.822998,92.524727 
	C330.281311,91.629555 328.727722,88.960281 327.423676,88.047180 
	C323.599152,85.369148 323.579315,81.736572 324.110535,76.947723 
M17.760986,96.150398 
	C18.462130,96.753418 19.090736,97.749054 19.876471,97.894218 
	C24.204945,98.693909 27.474186,95.752052 28.482462,90.308479 
	C29.930847,82.488823 32.466728,75.094574 38.161819,69.339424 
	C39.562222,67.924263 42.417675,66.895798 44.238346,67.307487 
	C45.524113,67.598244 47.019554,70.632713 46.989147,72.417877 
	C46.876167,79.051323 46.053650,85.669556 45.763550,92.305138 
	C45.683655,94.132660 46.528683,96.000610 46.949306,97.850014 
	C49.180733,97.113083 52.523106,97.019943 53.403770,95.500244 
	C55.049347,92.660599 55.990223,88.976891 55.917233,85.673256 
	C55.789352,79.885262 58.000534,75.283577 61.505096,71.150162 
	C64.129028,68.055412 67.462372,64.846786 71.763596,66.977356 
	C76.031853,69.091599 73.818260,73.355972 73.418465,76.855125 
	C72.911308,81.293961 71.927719,85.764229 72.127541,90.176651 
	C72.388512,95.939018 76.981186,99.408363 82.001259,97.791855 
	C84.013046,97.144035 85.773415,94.831963 86.944031,92.859489 
	C87.463600,91.984009 86.674126,89.280357 85.732231,88.761253 
	C80.069695,85.640442 80.511154,80.871178 81.544075,75.721275 
	C82.195007,72.475914 83.139839,69.172508 83.054787,65.918610 
	C82.805672,56.388351 74.454567,51.759247 66.133698,56.474056 
	C63.879887,57.751118 62.003490,59.790100 60.173843,61.691097 
	C58.560604,63.367245 57.254234,65.338753 55.493298,67.587234 
	C53.599594,56.293224 47.468586,52.214230 39.388176,56.688709 
	C36.505646,58.284893 34.318611,61.326283 32.170097,63.994629 
	C30.648977,65.883797 29.726103,68.254662 28.190533,71.036713 
	C28.190533,67.611855 28.288774,65.119484 28.166899,62.637913 
	C27.995499,59.148003 27.302446,55.777554 23.066336,55.169785 
	C18.979019,54.583359 15.759773,56.447498 14.109821,60.067760 
	C13.560470,61.273121 14.285372,64.190140 15.313255,64.779007 
	C18.914928,66.842422 20.103399,70.017128 19.875538,73.588165 
	C19.410946,80.869270 18.457258,88.119179 17.760986,96.150398 
M365.448059,54.880169 
	C351.952698,53.905445 337.740509,65.489082 336.298767,81.487717 
	C335.739868,87.689072 337.057373,93.167953 342.766907,96.637062 
	C347.574219,99.557983 355.856232,98.618225 360.580841,94.662560 
	C362.702271,92.886383 364.593353,90.835098 366.616669,88.881897 
	C367.533295,91.107025 367.845734,93.990005 369.432556,95.195404 
	C371.556061,96.808502 374.813873,98.073196 377.307098,97.688568 
	C379.262909,97.386864 381.464783,94.593819 382.238525,92.434921 
	C382.627045,91.350853 380.382904,88.799057 378.798584,87.630867 
	C374.145111,84.199615 373.278168,73.110870 377.630493,69.509102 
	C381.446014,66.351578 381.242188,59.996433 376.787842,57.780029 
	C373.619049,56.203316 369.855896,55.821095 365.448059,54.880169 
M443.895813,55.157848 
	C431.128052,56.670532 420.937378,69.593628 422.937775,84.920059 
	C423.745422,91.108086 426.946747,95.507706 432.814606,97.538742 
	C441.102356,100.407417 452.797852,96.560349 457.874634,89.333549 
	C458.749939,88.087563 458.539948,86.079201 458.831299,84.423012 
	C457.183380,84.690979 455.482239,84.783302 453.898438,85.262947 
	C450.447296,86.308090 447.125519,88.191925 443.624878,88.571762 
	C437.343597,89.253334 432.723053,85.175308 432.498932,79.455063 
	C435.104279,79.949677 437.654938,80.748756 440.229431,80.834785 
	C442.843689,80.922134 445.579346,80.649597 448.090759,79.934113 
	C455.937622,77.698570 460.974915,70.802536 459.905273,64.204597 
	C458.942993,58.269032 453.648773,55.080734 443.895813,55.157848 
M225.005600,98.040268 
	C233.894974,99.100334 241.556870,96.653282 247.330521,89.663872 
	C248.353027,88.426064 248.132904,86.161774 248.486603,84.371490 
	C246.820694,84.677200 244.887543,84.544731 243.537415,85.368187 
	C238.906158,88.192833 234.075378,89.710594 228.812744,87.956650 
	C224.952377,86.670067 221.844757,84.391083 222.186905,79.180153 
	C229.506439,81.651299 236.326813,81.803986 242.724030,77.759682 
	C248.025299,74.408226 250.802475,68.271957 249.426849,63.323643 
	C247.977356,58.109623 242.963425,54.971878 236.057205,55.035835 
	C234.735886,55.048069 233.392593,55.202003 232.100616,55.481098 
	C219.303757,58.245403 210.839569,71.001724 212.650528,84.544014 
	C213.590240,91.571098 217.150238,96.194771 225.005600,98.040268 
M129.044357,88.457069 
	C130.236374,85.724113 131.806000,83.090324 132.554337,80.240845 
	C135.624054,68.552376 131.070465,58.427280 121.377350,55.781116 
	C112.251167,53.289722 103.834419,55.275803 96.640175,61.464661 
	C92.627625,64.916451 92.957115,68.822815 97.204300,72.108727 
	C96.555305,74.310013 95.717529,76.502502 95.272690,78.772011 
	C93.266228,89.008636 98.035980,96.874306 106.825134,98.017349 
	C115.801865,99.184792 123.310791,96.782684 129.044357,88.457069 
M138.502045,65.922539 
	C140.549179,67.887337 143.668549,69.508926 144.429276,71.885498 
	C146.238327,77.537064 147.475906,83.501900 147.953552,89.420128 
	C148.760727,99.421432 155.802551,99.820602 162.033142,96.589256 
	C172.614975,91.101242 181.997040,71.861336 179.752014,60.217751 
	C179.413452,58.461849 177.134109,55.548489 176.209015,55.714489 
	C172.981918,56.293579 169.709824,57.629852 167.001221,59.478802 
	C166.184235,60.036499 166.489777,63.590233 167.399094,65.096771 
	C171.900284,72.554253 170.889267,79.543716 163.791168,84.158554 
	C161.719818,85.505249 158.894470,85.692268 156.414734,86.410843 
	C155.973343,84.236389 155.341278,82.079552 155.138367,79.883072 
	C154.878525,77.070045 155.363220,74.144043 154.808319,71.412750 
	C153.957947,67.227058 153.039062,62.890900 151.139618,59.128288 
	C149.184250,55.254848 145.193802,54.188309 141.240646,56.284782 
	C137.644897,58.191719 136.051971,61.332268 138.502045,65.922539 
M415.359467,93.491486 
	C417.191071,89.760902 416.024139,88.157379 411.886658,87.604416 
	C403.177856,86.440475 401.329498,84.035606 401.730072,75.563278 
	C402.215454,65.298157 402.248383,65.308205 412.585785,65.897446 
	C416.914337,66.144180 417.714294,62.927315 418.124664,59.666737 
	C418.544159,56.333866 416.847351,54.688725 413.526398,54.678005 
	C411.119202,54.670235 408.711945,54.676491 406.239990,54.676491 
	C406.142731,53.675102 406.066040,53.025295 406.018433,52.373363 
	C405.632660,47.086983 403.749634,45.990849 399.623779,49.181084 
	C396.499908,51.596554 393.633423,54.477283 391.139893,57.546974 
	C386.443970,63.327930 387.038147,65.006119 393.953522,67.007950 
	C393.512665,72.751976 392.834869,78.525429 392.694153,84.311958 
	C392.563995,89.664490 393.696228,95.138649 399.196136,97.295738 
	C404.708862,99.457870 410.334961,98.537186 415.359467,93.491486 
M199.560226,97.474937 
	C202.721970,95.806641 206.969620,92.703911 203.744537,89.926758 
	C198.305954,85.243530 199.732910,80.437592 200.333878,75.054474 
	C200.881638,70.147820 201.292130,65.189323 201.216263,60.262104 
	C201.163742,56.849800 198.986649,54.598499 195.297607,55.111263 
	C191.365067,55.657871 187.829269,57.246803 186.805496,61.569241 
	C186.583664,62.505859 187.518921,64.311935 188.424164,64.818146 
	C192.583969,67.144272 192.779282,70.846245 192.148621,74.754967 
	C191.410355,79.330620 190.102386,83.821045 189.486145,88.408165 
	C188.504532,95.714867 191.355026,98.421677 199.560226,97.474937 
M561.762939,63.475372 
	C559.309204,67.902557 559.625916,72.151161 562.869263,76.008766 
	C565.677124,79.348427 569.373474,80.665695 573.636597,79.536270 
	C578.481995,78.252586 581.299072,74.963356 581.881836,69.977173 
	C582.415710,65.409798 579.726562,61.009991 575.467224,59.101395 
	C570.762695,56.993301 566.639160,58.152588 561.762939,63.475372 
M523.216736,82.336479 
	C530.078369,86.040977 536.823303,83.495697 537.956482,76.774292 
	C538.699951,72.364349 536.561951,68.086540 532.582153,66.602821 
	C528.463196,65.067200 524.687805,65.781784 521.744934,69.234665 
	C518.705566,72.800842 519.077698,77.241051 523.216736,82.336479 
M548.619751,88.680130 
	C553.299622,88.516258 556.098511,86.035118 556.598083,81.478142 
	C556.999512,77.816551 555.149536,75.022095 551.702209,73.688835 
	C548.022522,72.265717 544.818054,73.329483 542.520081,76.510849 
	C539.192749,81.117287 541.555603,86.368019 548.619751,88.680130 
M190.524719,42.953415 
	C193.592178,46.429420 197.530487,46.914211 200.431244,43.738483 
	C202.115097,41.895054 202.874344,37.783768 202.040802,35.393543 
	C200.749191,31.689737 196.701294,31.802694 193.497940,33.127888 
	C189.343704,34.846447 189.083969,38.450916 190.524719,42.953415 
M505.394684,79.998436 
	C501.465027,80.120682 498.662170,82.121895 498.999420,86.016983 
	C499.187408,88.188019 501.211914,91.423279 503.020569,91.911232 
	C505.129517,92.480179 508.643646,91.271347 510.234070,89.590584 
	C513.202515,86.453423 511.171417,82.333481 505.394684,79.998436 
z"/>
<path fill="#278B29" opacity="1.000000" stroke="none" 
	d="
M494.569092,82.935669 
	C493.249420,92.183434 493.249420,92.183426 484.051636,92.149406 
	C475.877563,92.119164 475.858643,92.119179 475.854156,83.767494 
	C475.843750,64.441490 475.967590,45.114326 475.773773,25.790274 
	C475.726135,21.040134 477.337891,19.316664 482.101562,19.330704 
	C521.086426,19.445604 560.071838,19.434597 599.056824,19.345039 
	C603.571655,19.334667 605.130066,20.978693 605.084473,25.554367 
	C604.885132,45.544804 605.070923,65.538994 604.893860,85.529854 
	C604.875000,87.651985 603.988281,90.825638 602.478149,91.664665 
	C598.836914,93.687645 591.920654,91.943161 590.200134,89.452774 
	C590.105835,89.316307 590.061340,89.139069 589.950684,89.021194 
	C585.143616,83.902222 582.904846,78.973633 586.024048,71.317619 
	C588.992615,64.031364 583.051270,55.958748 575.280762,53.669235 
	C567.475464,51.369461 559.458374,55.724613 556.049744,63.983955 
	C555.403748,65.549240 553.784363,68.285957 553.440186,68.163330 
	C549.230713,66.663795 544.326782,71.178040 540.671021,66.934013 
	C536.047546,61.566551 530.598755,59.335102 523.779419,61.848759 
	C517.283875,64.243080 514.794495,69.343414 514.842896,75.985031 
	C514.847229,76.578659 514.502258,77.174835 514.318298,77.773705 
	C501.609711,73.660080 498.737640,74.378960 494.569092,82.935669 
M568.784912,46.829685 
	C584.137390,45.259907 596.521606,58.916336 592.292175,74.624664 
	C590.849182,79.983849 592.904114,82.621735 597.123596,86.143097 
	C597.733032,83.908691 598.535889,82.319038 598.544434,80.725105 
	C598.633423,64.236488 598.558899,47.747051 598.617615,31.258158 
	C598.631042,27.502140 597.173401,25.944118 593.256409,25.954912 
	C557.946472,26.052214 522.636108,26.041176 487.326019,25.974960 
	C483.772125,25.968294 482.129181,27.219255 482.144409,30.892780 
	C482.214050,47.714684 482.116943,64.537636 482.288513,81.358101 
	C482.302795,82.756119 483.874054,84.138268 484.721954,85.527779 
	C485.760651,84.430473 487.355713,83.502281 487.748901,82.208748 
	C490.549683,72.994637 496.844299,68.754929 506.229736,68.218887 
	C507.675873,68.136292 509.531433,66.848824 510.357117,65.574120 
	C518.467712,53.053219 530.720581,50.759914 542.782532,59.680435 
	C546.918091,62.738903 549.044495,62.422195 551.630310,58.131504 
	C555.377930,51.912865 560.681702,48.038300 568.784912,46.829685 
z"/>
<path fill="#278B29" opacity="1.000000" stroke="none" 
	d="
M533.458862,87.281311 
	C534.965210,88.084221 536.390137,88.512260 537.212463,89.462021 
	C539.591736,92.210068 542.061523,93.189148 545.364929,91.035004 
	C546.140442,90.529327 547.450928,90.174706 548.244019,90.472641 
	C553.951843,92.616791 557.302856,89.685875 561.312561,85.952194 
	C568.079163,79.651489 577.895264,80.685699 583.187561,88.360107 
	C586.153992,92.661865 587.749878,98.254898 588.703918,103.495407 
	C589.559509,108.194557 586.435791,111.055832 581.617188,111.070015 
	C554.462891,111.149979 527.308167,111.090874 500.153595,111.115761 
	C495.982758,111.119583 494.598358,108.907303 494.810455,105.070152 
	C495.317322,95.900673 503.625916,91.702202 511.460754,96.673515 
	C512.119690,97.091629 512.893433,97.328728 514.569275,98.075897 
	C514.467773,95.934669 514.227844,94.471191 514.370422,93.045967 
	C514.588745,90.863976 514.369019,87.979919 515.643616,86.752289 
	C516.848877,85.591446 519.753296,85.944572 521.888550,86.054642 
	C525.635193,86.247765 529.365173,86.763908 533.458862,87.281311 
z"/>
<path fill="#0FCC32" opacity="1.000000" stroke="none" 
	d="
M324.051392,77.380264 
	C323.579315,81.736572 323.599152,85.369148 327.423676,88.047180 
	C328.727722,88.960281 330.281311,91.629555 329.822998,92.524727 
	C328.734406,94.650932 326.803497,97.122894 324.687958,97.789864 
	C319.786102,99.335266 315.388458,96.071609 315.068390,90.513000 
	C314.805634,85.948746 315.734192,81.301437 316.287506,76.709351 
	C316.711029,73.194672 318.904114,69.004097 314.508087,66.920975 
	C310.425415,64.986328 307.168060,67.899109 304.606781,70.860428 
	C301.060822,74.960220 298.727142,79.490623 298.850311,85.292244 
	C298.921051,88.624008 298.147705,92.378975 296.481171,95.188133 
	C295.504028,96.835220 292.026215,96.998749 289.673248,97.829628 
	C289.291931,95.928238 288.513306,94.008293 288.601044,92.128807 
	C288.910614,85.498627 289.747223,78.886063 289.855682,72.258186 
	C289.884216,70.516640 288.349060,67.752922 286.910736,67.255692 
	C285.379150,66.726234 282.588470,67.792030 281.253937,69.091904 
	C275.298767,74.892525 273.085785,82.551582 271.108246,90.393524 
	C270.456512,92.977943 268.394379,95.471222 266.356812,97.323959 
	C265.415009,98.180321 262.837128,97.771553 261.303894,97.167564 
	C260.729889,96.941444 260.801971,94.509438 260.947479,93.121765 
	C261.535828,87.510468 262.561798,81.929573 262.855377,76.307640 
	C263.099701,71.627953 262.750641,66.855667 257.427155,64.466072 
	C256.750000,64.162117 256.002197,62.765148 256.156342,62.066284 
	C257.037872,58.069885 259.769867,55.777397 263.722809,55.144600 
	C267.434448,54.550426 269.984955,56.275780 270.659882,59.951073 
	C271.186829,62.820503 271.118622,65.799232 271.392395,69.887283 
	C273.140839,66.964561 274.020599,64.568817 275.665710,62.951710 
	C278.424377,60.240051 281.327911,57.157299 284.786835,55.790314 
	C290.963867,53.349152 295.912048,56.613113 297.520233,63.113976 
	C297.831879,64.373726 298.023529,65.663155 298.391479,67.563766 
	C300.532654,64.867241 302.244476,62.491615 304.181152,60.316177 
	C308.856476,55.064518 315.933289,53.273746 320.780060,55.978168 
	C325.156219,58.420013 327.062653,64.825256 325.427521,71.616745 
	C324.999023,73.396263 324.550079,75.170860 324.051392,77.380264 
z"/>
<path fill="#0FCC32" opacity="1.000000" stroke="none" 
	d="
M17.733025,95.766167 
	C18.457258,88.119179 19.410946,80.869270 19.875538,73.588165 
	C20.103399,70.017128 18.914928,66.842422 15.313255,64.779007 
	C14.285372,64.190140 13.560470,61.273121 14.109821,60.067760 
	C15.759773,56.447498 18.979019,54.583359 23.066336,55.169785 
	C27.302446,55.777554 27.995499,59.148003 28.166899,62.637913 
	C28.288774,65.119484 28.190533,67.611855 28.190533,71.036713 
	C29.726103,68.254662 30.648977,65.883797 32.170097,63.994629 
	C34.318611,61.326283 36.505646,58.284893 39.388176,56.688709 
	C47.468586,52.214230 53.599594,56.293224 55.493298,67.587234 
	C57.254234,65.338753 58.560604,63.367245 60.173843,61.691097 
	C62.003490,59.790100 63.879887,57.751118 66.133698,56.474056 
	C74.454567,51.759247 82.805672,56.388351 83.054787,65.918610 
	C83.139839,69.172508 82.195007,72.475914 81.544075,75.721275 
	C80.511154,80.871178 80.069695,85.640442 85.732231,88.761253 
	C86.674126,89.280357 87.463600,91.984009 86.944031,92.859489 
	C85.773415,94.831963 84.013046,97.144035 82.001259,97.791855 
	C76.981186,99.408363 72.388512,95.939018 72.127541,90.176651 
	C71.927719,85.764229 72.911308,81.293961 73.418465,76.855125 
	C73.818260,73.355972 76.031853,69.091599 71.763596,66.977356 
	C67.462372,64.846786 64.129028,68.055412 61.505096,71.150162 
	C58.000534,75.283577 55.789352,79.885262 55.917233,85.673256 
	C55.990223,88.976891 55.049347,92.660599 53.403770,95.500244 
	C52.523106,97.019943 49.180733,97.113083 46.949306,97.850014 
	C46.528683,96.000610 45.683655,94.132660 45.763550,92.305138 
	C46.053650,85.669556 46.876167,79.051323 46.989147,72.417877 
	C47.019554,70.632713 45.524113,67.598244 44.238346,67.307487 
	C42.417675,66.895798 39.562222,67.924263 38.161819,69.339424 
	C32.466728,75.094574 29.930847,82.488823 28.482462,90.308479 
	C27.474186,95.752052 24.204945,98.693909 19.876471,97.894218 
	C19.090736,97.749054 18.462130,96.753418 17.733025,95.766167 
z"/>
<path fill="#0FCC32" opacity="1.000000" stroke="none" 
	d="
M365.903015,54.892975 
	C369.855896,55.821095 373.619049,56.203316 376.787842,57.780029 
	C381.242188,59.996433 381.446014,66.351578 377.630493,69.509102 
	C373.278168,73.110870 374.145111,84.199615 378.798584,87.630867 
	C380.382904,88.799057 382.627045,91.350853 382.238525,92.434921 
	C381.464783,94.593819 379.262909,97.386864 377.307098,97.688568 
	C374.813873,98.073196 371.556061,96.808502 369.432556,95.195404 
	C367.845734,93.990005 367.533295,91.107025 366.616669,88.881897 
	C364.593353,90.835098 362.702271,92.886383 360.580841,94.662560 
	C355.856232,98.618225 347.574219,99.557983 342.766907,96.637062 
	C337.057373,93.167953 335.739868,87.689072 336.298767,81.487717 
	C337.740509,65.489082 351.952698,53.905445 365.903015,54.892975 
M367.791687,69.457703 
	C367.275177,68.539009 366.989166,67.191093 366.205353,66.770073 
	C360.371521,63.636608 350.518280,66.194191 346.885498,71.628128 
	C343.689392,76.408882 344.361328,83.171356 348.326385,86.129776 
	C352.168884,88.996742 358.752350,88.101616 361.976227,83.286446 
	C364.571838,79.409676 365.834686,74.640579 367.791687,69.457703 
z"/>
<path fill="#0FCB32" opacity="1.000000" stroke="none" 
	d="
M444.324951,55.119064 
	C453.648773,55.080734 458.942993,58.269032 459.905273,64.204597 
	C460.974915,70.802536 455.937622,77.698570 448.090759,79.934113 
	C445.579346,80.649597 442.843689,80.922134 440.229431,80.834785 
	C437.654938,80.748756 435.104279,79.949677 432.498932,79.455063 
	C432.723053,85.175308 437.343597,89.253334 443.624878,88.571762 
	C447.125519,88.191925 450.447296,86.308090 453.898438,85.262947 
	C455.482239,84.783302 457.183380,84.690979 458.831299,84.423004 
	C458.539948,86.079201 458.749939,88.087563 457.874634,89.333549 
	C452.797852,96.560349 441.102356,100.407417 432.814606,97.538742 
	C426.946747,95.507706 423.745422,91.108086 422.937775,84.920059 
	C420.937378,69.593628 431.128052,56.670532 444.324951,55.119064 
M448.155975,66.267471 
	C441.466187,62.909924 435.504883,65.235146 433.325165,72.249161 
	C437.248352,74.761963 441.378937,74.692352 445.570312,73.065369 
	C448.354645,71.984543 450.043915,70.171043 448.155975,66.267471 
z"/>
<path fill="#0FCC32" opacity="1.000000" stroke="none" 
	d="
M224.576782,97.994347 
	C217.150238,96.194771 213.590240,91.571098 212.650528,84.544014 
	C210.839569,71.001724 219.303757,58.245403 232.100616,55.481098 
	C233.392593,55.202003 234.735886,55.048069 236.057205,55.035835 
	C242.963425,54.971878 247.977356,58.109623 249.426849,63.323643 
	C250.802475,68.271957 248.025299,74.408226 242.724030,77.759682 
	C236.326813,81.803986 229.506439,81.651299 222.186905,79.180153 
	C221.844757,84.391083 224.952377,86.670067 228.812744,87.956650 
	C234.075378,89.710594 238.906158,88.192833 243.537415,85.368187 
	C244.887543,84.544731 246.820694,84.677200 248.486603,84.371490 
	C248.132904,86.161774 248.353027,88.426064 247.330521,89.663872 
	C241.556870,96.653282 233.894974,99.100334 224.576782,97.994347 
M227.884491,74.053215 
	C230.911163,73.445732 234.056000,73.149139 236.902390,72.067299 
	C237.941544,71.672348 238.863907,69.354858 238.737793,68.018402 
	C238.636185,66.941635 237.046722,65.580040 235.823013,65.108139 
	C230.584549,63.088058 224.802032,66.340096 223.095108,72.374084 
	C224.382553,72.884552 225.715240,73.412956 227.884491,74.053215 
z"/>
<path fill="#0FCD32" opacity="1.000000" stroke="none" 
	d="
M128.840912,88.759674 
	C123.310791,96.782684 115.801865,99.184792 106.825134,98.017349 
	C98.035980,96.874306 93.266228,89.008636 95.272690,78.772011 
	C95.717529,76.502502 96.555305,74.310013 97.204300,72.108727 
	C92.957115,68.822815 92.627625,64.916451 96.640175,61.464661 
	C103.834419,55.275803 112.251167,53.289722 121.377350,55.781116 
	C131.070465,58.427280 135.624054,68.552376 132.554337,80.240845 
	C131.806000,83.090324 130.236374,85.724113 128.840912,88.759674 
M103.987762,72.728798 
	C102.581253,77.666763 102.457039,82.360184 107.162003,85.731934 
	C112.741661,89.730499 120.658104,88.153488 124.232635,82.475578 
	C127.591415,77.140373 126.327187,70.343910 121.465950,67.602020 
	C114.833961,63.861370 107.549156,65.708031 103.987762,72.728798 
z"/>
<path fill="#0FCC32" opacity="1.000000" stroke="none" 
	d="
M138.186493,65.697708 
	C136.051971,61.332268 137.644897,58.191719 141.240646,56.284782 
	C145.193802,54.188309 149.184250,55.254848 151.139618,59.128288 
	C153.039062,62.890900 153.957947,67.227058 154.808319,71.412750 
	C155.363220,74.144043 154.878525,77.070045 155.138367,79.883072 
	C155.341278,82.079552 155.973343,84.236389 156.414734,86.410843 
	C158.894470,85.692268 161.719818,85.505249 163.791168,84.158554 
	C170.889267,79.543716 171.900284,72.554253 167.399094,65.096771 
	C166.489777,63.590233 166.184235,60.036499 167.001221,59.478802 
	C169.709824,57.629852 172.981918,56.293579 176.209015,55.714489 
	C177.134109,55.548489 179.413452,58.461849 179.752014,60.217751 
	C181.997040,71.861336 172.614975,91.101242 162.033142,96.589256 
	C155.802551,99.820602 148.760727,99.421432 147.953552,89.420128 
	C147.475906,83.501900 146.238327,77.537064 144.429276,71.885498 
	C143.668549,69.508926 140.549179,67.887337 138.186493,65.697708 
z"/>
<path fill="#0FCD32" opacity="1.000000" stroke="none" 
	d="
M415.125183,93.810242 
	C410.334961,98.537186 404.708862,99.457870 399.196136,97.295738 
	C393.696228,95.138649 392.563995,89.664490 392.694153,84.311958 
	C392.834869,78.525429 393.512665,72.751976 393.953522,67.007950 
	C387.038147,65.006119 386.443970,63.327930 391.139893,57.546974 
	C393.633423,54.477283 396.499908,51.596554 399.623779,49.181084 
	C403.749634,45.990849 405.632660,47.086983 406.018433,52.373363 
	C406.066040,53.025295 406.142731,53.675102 406.239990,54.676491 
	C408.711945,54.676491 411.119202,54.670235 413.526398,54.678005 
	C416.847351,54.688725 418.544159,56.333866 418.124664,59.666737 
	C417.714294,62.927315 416.914337,66.144180 412.585785,65.897446 
	C402.248383,65.308205 402.215454,65.298157 401.730072,75.563278 
	C401.329498,84.035606 403.177856,86.440475 411.886658,87.604416 
	C416.024139,88.157379 417.191071,89.760902 415.125183,93.810242 
z"/>
<path fill="#0FCA32" opacity="1.000000" stroke="none" 
	d="
M199.183548,97.610626 
	C191.355026,98.421677 188.504532,95.714867 189.486145,88.408165 
	C190.102386,83.821045 191.410355,79.330620 192.148621,74.754967 
	C192.779282,70.846245 192.583969,67.144272 188.424164,64.818146 
	C187.518921,64.311935 186.583664,62.505859 186.805496,61.569241 
	C187.829269,57.246803 191.365067,55.657871 195.297607,55.111263 
	C198.986649,54.598499 201.163742,56.849800 201.216263,60.262104 
	C201.292130,65.189323 200.881638,70.147820 200.333878,75.054474 
	C199.732910,80.437592 198.305954,85.243530 203.744537,89.926758 
	C206.969620,92.703911 202.721970,95.806641 199.183548,97.610626 
z"/>
<path fill="#278A29" opacity="1.000000" stroke="none" 
	d="
M561.969238,63.156826 
	C566.639160,58.152588 570.762695,56.993301 575.467224,59.101395 
	C579.726562,61.009991 582.415710,65.409798 581.881836,69.977173 
	C581.299072,74.963356 578.481995,78.252586 573.636597,79.536270 
	C569.373474,80.665695 565.677124,79.348427 562.869263,76.008766 
	C559.625916,72.151161 559.309204,67.902557 561.969238,63.156826 
z"/>
<path fill="#278A29" opacity="1.000000" stroke="none" 
	d="
M522.938049,82.096771 
	C519.077698,77.241051 518.705566,72.800842 521.744934,69.234665 
	C524.687805,65.781784 528.463196,65.067200 532.582153,66.602821 
	C536.561951,68.086540 538.699951,72.364349 537.956482,76.774292 
	C536.823303,83.495697 530.078369,86.040977 522.938049,82.096771 
z"/>
<path fill="#278829" opacity="1.000000" stroke="none" 
	d="
M548.238098,88.647842 
	C541.555603,86.368019 539.192749,81.117287 542.520081,76.510849 
	C544.818054,73.329483 548.022522,72.265717 551.702209,73.688835 
	C555.149536,75.022095 556.999512,77.816551 556.598083,81.478142 
	C556.098511,86.035118 553.299622,88.516258 548.238098,88.647842 
z"/>
<path fill="#0FCA32" opacity="1.000000" stroke="none" 
	d="
M190.343109,42.635326 
	C189.083969,38.450916 189.343704,34.846447 193.497940,33.127888 
	C196.701294,31.802694 200.749191,31.689737 202.040802,35.393543 
	C202.874344,37.783768 202.115097,41.895054 200.431244,43.738483 
	C197.530487,46.914211 193.592178,46.429420 190.343109,42.635326 
z"/>
<path fill="#278829" opacity="1.000000" stroke="none" 
	d="
M505.783386,80.037079 
	C511.171417,82.333481 513.202515,86.453423 510.234070,89.590584 
	C508.643646,91.271347 505.129517,92.480179 503.020569,91.911232 
	C501.211914,91.423279 499.187408,88.188019 498.999420,86.016983 
	C498.662170,82.121895 501.465027,80.120682 505.783386,80.037079 
z"/>
<path fill="#2B2D31" opacity="1.000000" stroke="none" 
	d="
M568.345703,46.866882 
	C560.681702,48.038300 555.377930,51.912865 551.630310,58.131504 
	C549.044495,62.422195 546.918091,62.738903 542.782532,59.680435 
	C530.720581,50.759914 518.467712,53.053219 510.357117,65.574120 
	C509.531433,66.848824 507.675873,68.136292 506.229736,68.218887 
	C496.844299,68.754929 490.549683,72.994637 487.748901,82.208748 
	C487.355713,83.502281 485.760651,84.430473 484.721954,85.527786 
	C483.874054,84.138268 482.302795,82.756119 482.288513,81.358101 
	C482.116943,64.537636 482.214050,47.714684 482.144409,30.892780 
	C482.129181,27.219255 483.772125,25.968294 487.326019,25.974960 
	C522.636108,26.041176 557.946472,26.052214 593.256409,25.954912 
	C597.173401,25.944118 598.631042,27.502140 598.617615,31.258158 
	C598.558899,47.747051 598.633423,64.236488 598.544434,80.725105 
	C598.535889,82.319038 597.733032,83.908691 597.123596,86.143097 
	C592.904114,82.621735 590.849182,79.983849 592.292175,74.624664 
	C596.521606,58.916336 584.137390,45.259907 568.345703,46.866882 
z"/>
<path fill="#2B2E31" opacity="1.000000" stroke="none" 
	d="
M367.740265,69.862549 
	C365.834686,74.640579 364.571838,79.409676 361.976227,83.286446 
	C358.752350,88.101616 352.168884,88.996742 348.326385,86.129776 
	C344.361328,83.171356 343.689392,76.408882 346.885498,71.628128 
	C350.518280,66.194191 360.371521,63.636608 366.205353,66.770073 
	C366.989166,67.191093 367.275177,68.539009 367.740265,69.862549 
z"/>
<path fill="#2A2E31" opacity="1.000000" stroke="none" 
	d="
M448.421967,66.587555 
	C450.043915,70.171043 448.354645,71.984543 445.570312,73.065369 
	C441.378937,74.692352 437.248352,74.761963 433.325165,72.249161 
	C435.504883,65.235146 441.466187,62.909924 448.421967,66.587555 
z"/>
<path fill="#2A3131" opacity="1.000000" stroke="none" 
	d="
M227.466217,73.997292 
	C225.715240,73.412956 224.382553,72.884552 223.095108,72.374084 
	C224.802032,66.340096 230.584549,63.088058 235.823013,65.108139 
	C237.046722,65.580040 238.636185,66.941635 238.737793,68.018402 
	C238.863907,69.354858 237.941544,71.672348 236.902390,72.067299 
	C234.056000,73.149139 230.911163,73.445732 227.466217,73.997292 
z"/>
<path fill="#2A2F31" opacity="1.000000" stroke="none" 
	d="
M104.103912,72.351288 
	C107.549156,65.708031 114.833961,63.861370 121.465950,67.602020 
	C126.327187,70.343910 127.591415,77.140373 124.232635,82.475578 
	C120.658104,88.153488 112.741661,89.730499 107.162003,85.731934 
	C102.457039,82.360184 102.581253,77.666763 104.103912,72.351288 
z"/>
</svg>