<svg version="1.1" id="Layer_1" xmlns="http://www.w3.org/2000/svg" xmlns:xlink="http://www.w3.org/1999/xlink" x="0px" y="0px"
	 width="100%" viewBox="0 0 416 170" enable-background="new 0 0 416 170" xml:space="preserve">
<path fill="#2B2B31" opacity="1.000000" stroke="none" 
	d="
M265.000000,171.000000 
	C176.666672,171.000000 88.833336,171.000000 1.000000,171.000000 
	C1.000000,114.333336 1.000000,57.666668 1.000000,1.000000 
	C139.666672,1.000000 278.333344,1.000000 417.000000,1.000000 
	C417.000000,57.666668 417.000000,114.333336 417.000000,171.000000 
	C366.500000,171.000000 316.000000,171.000000 265.000000,171.000000 
M144.497025,72.356567 
	C142.534912,66.568535 138.288391,69.635918 134.040161,69.249802 
	C137.760345,78.972870 141.331985,87.880600 144.538879,96.917763 
	C145.681442,100.137581 147.345139,101.182220 150.702484,101.135033 
	C153.945908,101.089447 155.822906,100.350883 157.007706,97.043991 
	C159.689896,89.557686 162.816833,82.230721 166.130875,75.448418 
	C168.001099,77.632111 169.871323,79.815804 171.880600,82.845619 
	C171.837601,84.552551 171.794601,86.259483 171.480621,88.635254 
	C170.351074,92.979805 169.272156,97.338364 168.075653,101.664398 
	C167.146545,105.023712 167.922958,107.325584 171.226273,109.060318 
	C172.770966,109.871536 174.488647,111.822540 174.697098,113.441231 
	C175.399597,118.896339 178.707596,119.570580 182.919373,118.421295 
	C187.064728,117.290131 191.066940,115.634819 195.132965,114.212395 
	C196.266983,113.815689 197.404572,113.429207 198.540527,113.038025 
	C198.368759,115.246170 197.751602,116.896820 196.565002,117.795990 
	C191.850189,121.368790 187.102066,124.942177 182.070175,128.033310 
	C179.536560,129.589737 178.512314,130.721313 179.400604,133.887436 
	C180.386292,137.400742 180.828308,141.229660 180.628601,144.873016 
	C180.350571,149.945175 181.565353,151.478897 186.086853,149.102020 
	C190.864059,146.590729 195.798859,143.649002 199.374191,139.720642 
	C209.475449,128.622070 214.351349,115.138321 215.348526,99.471107 
	C215.519836,97.455193 215.691162,95.439278 215.903870,92.524216 
	C215.936691,90.728973 215.969513,88.933739 216.598892,86.742401 
	C216.347473,82.613693 216.096054,78.484993 215.858566,73.444618 
	C214.984604,66.211464 214.150421,58.973179 213.219452,51.747364 
	C212.771759,48.272587 210.979248,46.943066 207.328964,47.881535 
	C196.590942,50.642223 185.800552,53.199242 174.547577,56.019352 
	C174.211029,56.086071 173.874496,56.152790 172.599731,56.184116 
	C163.702194,56.581909 154.804657,56.979702 144.889923,57.422970 
	C146.360992,58.038544 146.909546,58.450367 147.475845,58.476402 
	C152.271561,58.696869 157.069260,58.916439 161.868774,59.002739 
	C170.095795,59.150661 171.466797,61.657791 166.319366,68.990845 
	C161.211395,68.195534 157.063492,69.046814 155.203659,74.813309 
	C151.777985,74.195259 148.352310,73.577202 144.497025,72.356567 
M254.353836,93.754601 
	C256.764679,91.813271 259.175507,89.871941 261.726074,88.858955 
	C261.726074,92.760765 261.726074,96.662575 261.726074,100.551186 
	C265.040039,100.551186 267.399597,100.551186 270.415649,100.551186 
	C270.415649,88.370834 270.415649,76.636978 270.379272,64.698715 
	C270.359222,64.491081 270.365570,64.284348 270.264923,63.414230 
	C270.308502,62.968250 270.352081,62.522270 270.807281,61.541946 
	C271.539154,59.699944 272.617462,57.917385 272.945404,56.006073 
	C274.772858,45.355888 276.615143,34.700893 278.052673,23.993885 
	C278.913696,17.580389 277.682770,16.602770 271.299713,17.337648 
	C255.701569,19.133453 240.401291,17.538315 225.297989,13.476853 
	C224.180832,13.176438 223.005051,13.094062 221.856522,12.910321 
	C224.100952,15.051521 226.611282,16.225384 229.199692,17.189627 
	C236.191254,19.794140 236.126190,19.964073 233.214157,26.771603 
	C231.415802,30.975676 229.282425,35.476238 229.241821,39.861679 
	C229.205368,43.799072 228.840485,46.960426 226.332855,49.918396 
	C224.288605,52.329773 222.373306,54.850201 220.388153,57.312061 
	C218.507248,59.644611 218.308426,61.804714 219.962341,64.589409 
	C221.194763,66.664413 221.129272,69.468147 222.025116,71.800087 
	C222.616333,73.339096 223.887299,74.616966 224.993271,76.901581 
	C224.943146,79.607918 224.893021,82.314247 224.227692,85.149117 
	C223.479172,86.219513 221.840256,87.795494 222.117355,88.283501 
	C225.580521,94.382500 221.910339,99.105934 219.460083,104.129532 
	C217.167648,108.829529 217.862610,109.637802 223.265976,110.039703 
	C232.850952,110.752632 240.790192,107.133240 248.673889,101.051956 
	C250.149750,99.358574 251.625626,97.665184 253.412384,95.468452 
	C253.599594,95.121140 253.786804,94.773827 253.724442,94.376518 
	C253.724442,94.376518 253.755997,94.123932 254.353836,93.754601 
M84.678848,99.744247 
	C87.198158,100.254173 89.717468,100.764091 92.543076,101.336014 
	C92.543076,86.638115 92.543076,73.076591 92.543076,58.982967 
	C90.344414,58.982967 88.520119,59.185665 86.757011,58.943295 
	C82.258736,58.324924 79.830833,59.778290 78.644867,64.541191 
	C76.959000,71.311722 74.394951,77.865601 72.152489,84.493904 
	C71.671417,85.915833 70.961281,87.260262 70.356667,88.640396 
	C67.118347,81.653694 64.999756,74.848022 62.872131,68.045158 
	C59.810780,58.256794 59.807785,58.255394 49.497601,59.113762 
	C49.180447,59.140171 48.876511,59.325298 48.202324,59.566902 
	C48.202324,73.152122 48.202324,86.860878 48.202324,100.656036 
	C50.854691,100.656036 53.094517,100.656036 55.892551,100.656036 
	C55.892551,91.473335 55.892551,82.623535 55.892551,73.773743 
	C59.495441,81.474091 62.059246,89.317055 64.311577,97.248466 
	C65.152725,100.210518 66.642677,101.163826 69.631691,101.099800 
	C72.439232,101.039658 74.321526,100.574341 75.119385,97.459953 
	C76.067833,93.757835 77.494255,90.178535 78.704681,86.543060 
	C80.090691,82.380257 81.466934,78.214203 82.847420,74.049561 
	C83.391685,74.137512 83.935951,74.225471 84.480217,74.313431 
	C84.480217,82.500732 84.480217,90.688042 84.678848,99.744247 
M107.795738,99.924889 
	C115.995888,103.587936 123.643082,102.392448 128.212891,96.733063 
	C132.900162,90.928223 133.070038,79.943748 128.568039,73.769745 
	C124.642578,68.386406 116.557655,66.385506 109.629700,69.082787 
	C98.445091,73.437340 97.034035,90.745247 107.795738,99.924889 
M363.424835,70.972961 
	C351.281189,63.643761 339.482819,69.613220 338.449768,83.609215 
	C337.440491,97.283211 347.781586,105.094116 361.894379,101.317528 
	C366.892212,99.980110 367.310059,99.039253 365.152252,93.981529 
	C351.049530,96.185005 347.866974,94.942123 348.455872,86.968521 
	C352.384186,86.968521 356.352783,86.969688 360.321381,86.968277 
	C368.496002,86.965355 370.262482,84.344223 367.154907,76.460548 
	C366.444489,74.658379 365.063293,73.120636 363.424835,70.972961 
M280.669159,84.072205 
	C276.474762,88.737846 276.055481,94.783447 279.641113,98.895691 
	C283.521942,103.346481 290.094513,103.046494 296.774933,98.641930 
	C299.973785,99.683357 302.585541,100.533646 305.944641,101.627243 
	C305.944641,92.556953 306.420166,84.892883 305.694244,77.344345 
	C305.429749,74.593819 302.871277,71.030563 300.374084,69.730087 
	C293.970947,66.395515 287.303833,67.553665 280.840118,70.821747 
	C281.604095,74.987030 282.718842,77.040939 287.485199,75.437309 
	C294.015228,73.240311 296.708344,75.047386 296.673035,79.970390 
	C291.487091,81.206360 286.393280,82.420364 280.669159,84.072205 
M312.577972,75.493828 
	C313.646179,76.832054 315.465546,78.081352 315.636566,79.525810 
	C316.083893,83.304001 315.718628,87.170509 315.843689,90.996368 
	C316.121765,99.501396 319.647980,102.595085 328.201202,101.989250 
	C333.867493,101.587914 334.573669,100.606331 333.704712,96.322479 
	C330.217163,94.590981 325.713379,93.678101 325.361603,91.929771 
	C324.345764,86.881325 325.002533,81.496323 325.002533,76.376434 
	C334.366730,74.998894 334.366730,74.998894 332.995911,69.285965 
	C330.488800,69.071228 327.905182,68.849937 325.261871,68.623535 
	C324.935425,66.359230 324.656708,64.426125 324.190948,61.195667 
	C321.862030,62.314281 319.699615,62.808643 318.341766,64.129860 
	C316.185791,66.227707 314.437897,68.793915 312.787811,71.337448 
	C312.167877,72.293114 312.302673,73.738419 312.577972,75.493828 
M206.968185,40.237083 
	C210.633423,40.237083 214.298660,40.237083 218.622421,40.237083 
	C217.220734,35.637676 215.316589,33.381199 211.660522,33.200550 
	C205.768524,32.909412 201.825027,36.038410 197.572418,41.717735 
	C201.362045,41.110443 203.743622,40.728790 206.968185,40.237083 
M207.085144,25.334021 
	C205.082779,26.496046 203.080429,27.658072 201.078079,28.820097 
	C206.330597,28.982079 211.058868,28.431726 215.740051,27.612434 
	C216.635376,27.455742 217.345215,26.239244 218.140625,25.511692 
	C217.146973,24.884466 216.116806,23.681812 215.166794,23.742115 
	C212.700943,23.898630 210.270355,24.610628 207.085144,25.334021 
z"/>
<path fill="#232020" opacity="1.000000" stroke="none" 
	d="
M215.026627,100.148529 
	C214.351349,115.138321 209.475449,128.622070 199.374191,139.720642 
	C195.798859,143.649002 190.864059,146.590729 186.086853,149.102020 
	C181.565353,151.478897 180.350571,149.945175 180.628601,144.873016 
	C180.828308,141.229660 180.386292,137.400742 179.400604,133.887436 
	C178.512314,130.721313 179.536560,129.589737 182.070175,128.033310 
	C187.102066,124.942177 191.850189,121.368790 196.565002,117.795990 
	C197.751602,116.896820 198.368759,115.246170 198.540527,113.038025 
	C197.404572,113.429207 196.266983,113.815689 195.132965,114.212395 
	C191.066940,115.634819 187.064728,117.290131 182.919373,118.421295 
	C178.707596,119.570580 175.399597,118.896339 174.697098,113.441231 
	C174.488647,111.822540 172.770966,109.871536 171.226273,109.060318 
	C167.922958,107.325584 167.146545,105.023712 168.075653,101.664398 
	C169.272156,97.338364 170.351074,92.979805 171.680084,88.765701 
	C171.879547,92.803276 171.879547,96.710396 171.879547,100.570831 
	C175.322464,100.570831 177.855850,100.570831 180.478485,100.570831 
	C180.478485,89.931358 180.478485,79.736679 180.478485,69.344757 
	C177.577515,69.344757 175.039062,69.344757 171.741531,69.344757 
	C171.741531,73.795273 171.741531,77.897392 171.741531,81.999504 
	C169.871323,79.815804 168.001099,77.632111 165.977814,74.865128 
	C166.158890,73.623886 166.493011,72.965927 166.940048,72.087654 
	C167.186615,71.258812 167.320267,70.650291 167.423645,69.781158 
	C167.344360,69.352661 167.295349,69.184769 167.246323,69.016869 
	C171.466797,61.657791 170.095795,59.150661 161.868774,59.002739 
	C157.069260,58.916439 152.271561,58.696869 147.475845,58.476402 
	C146.909546,58.450367 146.360992,58.038544 144.889923,57.422970 
	C154.804657,56.979702 163.702194,56.581909 172.850571,56.474655 
	C170.987946,59.539337 170.514114,62.384388 174.107117,64.018539 
	C175.583679,64.690102 178.071976,64.271088 179.549225,63.406742 
	C180.526611,62.834866 181.334106,59.763836 180.808151,59.247524 
	C179.258911,57.726715 177.007339,56.921379 175.030670,55.835999 
	C185.800552,53.199242 196.590942,50.642223 207.328964,47.881535 
	C210.979248,46.943066 212.771759,48.272587 213.219452,51.747364 
	C214.150421,58.973179 214.984604,66.211464 215.584000,73.682549 
	C211.002121,67.777412 204.721390,67.551636 197.920227,67.938217 
	C192.991928,64.678505 190.184662,65.023132 187.709244,69.005707 
	C190.166489,69.240013 192.570938,69.469284 194.701309,69.904572 
	C192.375565,72.749352 190.323883,75.388115 187.962494,78.142990 
	C186.446030,79.234001 185.239273,80.208900 182.930679,82.073959 
	C185.563431,82.073959 186.604675,82.073959 187.665863,82.520554 
	C187.659119,95.588379 192.732162,101.931435 203.372818,101.907082 
	C207.258743,101.898193 211.142105,100.767471 215.026627,100.148529 
z"/>
<path fill="#232020" opacity="1.000000" stroke="none" 
	d="
M224.853928,76.011757 
	C223.887299,74.616966 222.616333,73.339096 222.025116,71.800087 
	C221.129272,69.468147 221.194763,66.664413 219.962341,64.589409 
	C218.308426,61.804714 218.507248,59.644611 220.388153,57.312061 
	C222.373306,54.850201 224.288605,52.329773 226.332855,49.918396 
	C228.840485,46.960426 229.205368,43.799072 229.241821,39.861679 
	C229.282425,35.476238 231.415802,30.975676 233.214157,26.771603 
	C236.126190,19.964073 236.191254,19.794140 229.199692,17.189627 
	C226.611282,16.225384 224.100952,15.051521 221.856522,12.910321 
	C223.005051,13.094062 224.180832,13.176438 225.297989,13.476853 
	C240.401291,17.538315 255.701569,19.133453 271.299713,17.337648 
	C277.682770,16.602770 278.913696,17.580389 278.052673,23.993885 
	C276.615143,34.700893 274.772858,45.355888 272.945404,56.006073 
	C272.617462,57.917385 271.539154,59.699944 270.509094,61.375641 
	C269.975677,60.614796 269.902802,59.677292 269.480743,59.477535 
	C263.817474,56.797070 257.814056,59.469086 255.823166,65.468971 
	C254.880478,68.309898 253.944000,71.152908 252.992401,73.990845 
	C251.300644,79.036247 249.599518,84.078506 247.902298,89.122070 
	C243.999344,80.307007 241.398346,71.578568 238.486786,62.954983 
	C237.967514,61.416981 236.326309,59.459923 234.914413,59.186302 
	C231.923187,58.606617 228.741531,59.009583 224.853928,59.009583 
	C224.853928,65.124374 224.853928,70.568062 224.853928,76.011757 
M257.560669,51.490612 
	C258.537628,51.915836 259.514587,52.341061 260.716614,52.864246 
	C259.673828,46.694057 255.476120,41.581417 251.178940,41.292995 
	C248.061722,41.083771 244.993088,41.458637 243.744995,45.165329 
	C248.345245,47.241520 252.671722,49.194153 257.560669,51.490612 
M252.258728,35.308578 
	C255.287888,37.148830 258.317047,38.989086 261.703644,41.046474 
	C259.739868,35.121620 253.526672,30.851582 248.115707,32.103458 
	C249.564301,33.304237 250.595139,34.158733 252.258728,35.308578 
z"/>
<path fill="#0FCA32" opacity="1.000000" stroke="none" 
	d="
M84.579529,99.309799 
	C84.480217,90.688042 84.480217,82.500732 84.480217,74.313431 
	C83.935951,74.225471 83.391685,74.137512 82.847420,74.049561 
	C81.466934,78.214203 80.090691,82.380257 78.704681,86.543060 
	C77.494255,90.178535 76.067833,93.757835 75.119385,97.459953 
	C74.321526,100.574341 72.439232,101.039658 69.631691,101.099800 
	C66.642677,101.163826 65.152725,100.210518 64.311577,97.248466 
	C62.059246,89.317055 59.495441,81.474091 55.892551,73.773743 
	C55.892551,82.623535 55.892551,91.473335 55.892551,100.656036 
	C53.094517,100.656036 50.854691,100.656036 48.202324,100.656036 
	C48.202324,86.860878 48.202324,73.152122 48.202324,59.566902 
	C48.876511,59.325298 49.180447,59.140171 49.497601,59.113762 
	C59.807785,58.255394 59.810780,58.256794 62.872131,68.045158 
	C64.999756,74.848022 67.118347,81.653694 70.356667,88.640396 
	C70.961281,87.260262 71.671417,85.915833 72.152489,84.493904 
	C74.394951,77.865601 76.959000,71.311722 78.644867,64.541191 
	C79.830833,59.778290 82.258736,58.324924 86.757011,58.943295 
	C88.520119,59.185665 90.344414,58.982967 92.543076,58.982967 
	C92.543076,73.076591 92.543076,86.638115 92.543076,101.336014 
	C89.717468,100.764091 87.198158,100.254173 84.579529,99.309799 
z"/>
<path fill="#0FCB32" opacity="1.000000" stroke="none" 
	d="
M224.923599,76.456665 
	C224.853928,70.568062 224.853928,65.124374 224.853928,59.009583 
	C228.741531,59.009583 231.923187,58.606617 234.914413,59.186302 
	C236.326309,59.459923 237.967514,61.416981 238.486786,62.954983 
	C241.398346,71.578568 243.999344,80.307007 247.902298,89.122070 
	C249.599518,84.078506 251.300644,79.036247 252.992401,73.990845 
	C253.944000,71.152908 254.880478,68.309898 255.823166,65.468971 
	C257.814056,59.469086 263.817474,56.797070 269.480743,59.477535 
	C269.902802,59.677292 269.975677,60.614796 270.303284,61.642815 
	C270.352081,62.522270 270.308502,62.968250 270.295288,63.953342 
	C270.325623,64.492455 270.415649,64.903122 270.415649,64.903122 
	C270.415649,76.636978 270.415649,88.370834 270.415649,100.551186 
	C267.399597,100.551186 265.040039,100.551186 261.726074,100.551186 
	C261.726074,96.662575 261.726074,92.760765 261.732605,87.941849 
	C261.739166,81.999580 261.739166,76.974419 261.739166,71.949265 
	C261.412964,71.870796 261.086761,71.792336 260.760559,71.713875 
	C258.425690,79.183891 256.090851,86.653908 253.755981,94.123932 
	C253.755997,94.123932 253.724442,94.376518 253.587311,94.577454 
	C253.333939,95.176193 253.217712,95.573997 253.101501,95.971802 
	C251.625626,97.665184 250.149750,99.358574 247.903961,101.055626 
	C243.983887,101.483757 242.294388,100.206779 241.607635,96.999428 
	C241.024551,94.276176 239.838837,91.681969 238.899475,88.646393 
	C237.620270,84.877693 236.361328,81.493256 235.102386,78.108818 
	C234.537170,78.231049 233.971970,78.353271 233.406754,78.475494 
	C233.406754,81.335037 233.406754,84.194572 233.333267,87.510910 
	C233.259781,92.192963 233.259781,96.418221 233.259781,100.637100 
	C230.059647,100.637100 227.835876,100.637100 224.842896,100.637100 
	C224.842896,95.197853 224.842896,90.109215 224.842896,85.020584 
	C224.893021,82.314247 224.943146,79.607918 224.923599,76.456665 
M233.515472,76.940887 
	C234.031281,76.630714 234.547104,76.320534 235.059998,75.353500 
	C234.618484,74.113693 234.176971,72.873886 233.735458,71.634071 
	C233.408005,71.730217 233.080551,71.826355 232.753113,71.922501 
	C232.931061,73.339951 233.109009,74.757408 233.515472,76.940887 
z"/>
<path fill="#0FCA32" opacity="1.000000" stroke="none" 
	d="
M107.471199,99.732208 
	C97.034035,90.745247 98.445091,73.437340 109.629700,69.082787 
	C116.557655,66.385506 124.642578,68.386406 128.568039,73.769745 
	C133.070038,79.943748 132.900162,90.928223 128.212891,96.733063 
	C123.643082,102.392448 115.995888,103.587936 107.471199,99.732208 
M120.550171,76.998878 
	C114.675117,73.431641 110.466400,75.354874 109.813072,82.082359 
	C109.574791,84.536003 109.703453,87.087852 110.097137,89.525047 
	C110.633621,92.846298 112.841370,95.486320 116.180763,94.711479 
	C118.414574,94.193169 121.493385,91.708977 121.809677,89.724480 
	C122.430573,85.828682 121.388214,81.667809 120.550171,76.998878 
z"/>
<path fill="#0FCB32" opacity="1.000000" stroke="none" 
	d="
M363.707825,71.217072 
	C365.063293,73.120636 366.444489,74.658379 367.154907,76.460548 
	C370.262482,84.344223 368.496002,86.965355 360.321381,86.968277 
	C356.352783,86.969688 352.384186,86.968521 348.455872,86.968521 
	C347.866974,94.942123 351.049530,96.185005 365.152252,93.981529 
	C367.310059,99.039253 366.892212,99.980110 361.894379,101.317528 
	C347.781586,105.094116 337.440491,97.283211 338.449768,83.609215 
	C339.482819,69.613220 351.281189,63.643761 363.707825,71.217072 
M351.768494,81.007591 
	C354.325562,81.007591 356.882629,81.007591 359.439697,81.007591 
	C359.738220,80.334763 360.036743,79.661926 360.335266,78.989098 
	C358.405670,77.420547 356.618988,74.891556 354.502869,74.576729 
	C352.696320,74.307945 349.995880,76.162018 348.626923,77.840515 
	C346.990784,79.846619 348.455353,81.115791 351.768494,81.007591 
z"/>
<path fill="#0FCA32" opacity="1.000000" stroke="none" 
	d="
M280.984314,83.853287 
	C286.393280,82.420364 291.487091,81.206360 296.673035,79.970390 
	C296.708344,75.047386 294.015228,73.240311 287.485199,75.437309 
	C282.718842,77.040939 281.604095,74.987030 280.840118,70.821747 
	C287.303833,67.553665 293.970947,66.395515 300.374084,69.730087 
	C302.871277,71.030563 305.429749,74.593819 305.694244,77.344345 
	C306.420166,84.892883 305.944641,92.556953 305.944641,101.627243 
	C302.585541,100.533646 299.973785,99.683357 296.774933,98.641930 
	C290.094513,103.046494 283.521942,103.346481 279.641113,98.895691 
	C276.055481,94.783447 276.474762,88.737846 280.984314,83.853287 
M286.988220,89.372375 
	C287.479950,91.244164 287.964478,94.714233 288.464630,94.716476 
	C290.882233,94.727364 293.772675,94.405045 295.561462,93.006393 
	C296.777008,92.055977 296.450409,89.133270 296.813446,87.092560 
	C294.630829,87.032829 292.427856,86.776291 290.274536,86.999451 
	C289.253906,87.105217 288.328217,88.127510 286.988220,89.372375 
z"/>
<path fill="#0FCB32" opacity="1.000000" stroke="none" 
	d="
M198.149887,68.197769 
	C204.721390,67.551636 211.002121,67.777412 215.577026,74.138382 
	C216.096054,78.484993 216.347473,82.613693 215.835022,86.878708 
	C209.142624,87.015007 203.214096,87.015007 197.280289,87.015007 
	C197.465958,92.854774 199.299667,95.194801 204.169952,95.078293 
	C208.078415,94.984787 211.965759,94.008125 215.862473,93.423370 
	C215.691162,95.439278 215.519836,97.455193 215.187576,99.809814 
	C211.142105,100.767471 207.258743,101.898193 203.372818,101.907082 
	C192.732162,101.931435 187.659119,95.588379 187.778763,82.126480 
	C188.005234,80.199501 188.138733,79.113182 188.272217,78.026871 
	C190.323883,75.388115 192.375565,72.749352 194.980194,69.820419 
	C196.405411,69.086098 197.277649,68.641937 198.149887,68.197769 
M205.525375,74.887070 
	C199.929749,73.653793 197.873947,75.121178 197.591843,80.613754 
	C201.271805,80.613754 204.943939,80.613754 209.858337,80.613754 
	C208.266586,78.244370 207.244110,76.722389 205.525375,74.887070 
z"/>
<path fill="#0FC932" opacity="1.000000" stroke="none" 
	d="
M166.827133,72.307968 
	C166.493011,72.965927 166.158890,73.623886 165.793839,74.560402 
	C162.816833,82.230721 159.689896,89.557686 157.007706,97.043991 
	C155.822906,100.350883 153.945908,101.089447 150.702484,101.135033 
	C147.345139,101.182220 145.681442,100.137581 144.538879,96.917763 
	C141.331985,87.880600 137.760345,78.972870 134.040161,69.249802 
	C138.288391,69.635918 142.534912,66.568535 144.722992,72.989105 
	C145.277359,74.426216 145.605774,75.230804 145.967667,76.413300 
	C146.385559,78.036774 146.519592,79.450409 147.215408,80.486923 
	C148.163986,81.899940 149.540909,83.025398 150.734177,84.274155 
	C151.959106,82.993362 153.349808,81.827507 154.347244,80.388977 
	C154.951797,79.517082 154.947647,78.223129 155.400726,76.903694 
	C155.696808,76.143539 155.809128,75.598488 155.921432,75.053429 
	C157.063492,69.046814 161.211395,68.195534 166.782837,69.003860 
	C167.295349,69.184769 167.344360,69.352661 167.249359,70.132889 
	C167.012589,71.266136 166.919861,71.787048 166.827133,72.307968 
z"/>
<path fill="#0FCA32" opacity="1.000000" stroke="none" 
	d="
M312.335693,75.227165 
	C312.302673,73.738419 312.167877,72.293114 312.787811,71.337448 
	C314.437897,68.793915 316.185791,66.227707 318.341766,64.129860 
	C319.699615,62.808643 321.862030,62.314281 324.190948,61.195667 
	C324.656708,64.426125 324.935425,66.359230 325.261871,68.623535 
	C327.905182,68.849937 330.488800,69.071228 332.995911,69.285965 
	C334.366730,74.998894 334.366730,74.998894 325.002533,76.376434 
	C325.002533,81.496323 324.345764,86.881325 325.361603,91.929771 
	C325.713379,93.678101 330.217163,94.590981 333.704712,96.322479 
	C334.573669,100.606331 333.867493,101.587914 328.201202,101.989250 
	C319.647980,102.595085 316.121765,99.501396 315.843689,90.996368 
	C315.718628,87.170509 316.083893,83.304001 315.636566,79.525810 
	C315.465546,78.081352 313.646179,76.832054 312.335693,75.227165 
z"/>
<path fill="#232121" opacity="1.000000" stroke="none" 
	d="
M224.535294,85.084854 
	C224.842896,90.109215 224.842896,95.197853 224.842896,100.637100 
	C227.835876,100.637100 230.059647,100.637100 233.259781,100.637100 
	C233.259781,96.418221 233.259781,92.192963 233.636887,87.616776 
	C235.649246,87.854111 237.284500,88.442383 238.919754,89.030663 
	C239.838837,91.681969 241.024551,94.276176 241.607635,96.999428 
	C242.294388,100.206779 243.983887,101.483757 247.533661,101.118378 
	C240.790192,107.133240 232.850952,110.752632 223.265976,110.039703 
	C217.862610,109.637802 217.167648,108.829529 219.460083,104.129532 
	C221.910339,99.105934 225.580521,94.382500 222.117355,88.283501 
	C221.840256,87.795494 223.479172,86.219513 224.535294,85.084854 
z"/>
<path fill="#0FC931" opacity="1.000000" stroke="none" 
	d="
M171.811066,82.422562 
	C171.741531,77.897392 171.741531,73.795273 171.741531,69.344757 
	C175.039062,69.344757 177.577515,69.344757 180.478485,69.344757 
	C180.478485,79.736679 180.478485,89.931358 180.478485,100.570831 
	C177.855850,100.570831 175.322464,100.570831 171.879547,100.570831 
	C171.879547,96.710396 171.879547,92.803276 171.815567,88.431290 
	C171.794601,86.259483 171.837601,84.552551 171.811066,82.422562 
z"/>
<path fill="#232120" opacity="1.000000" stroke="none" 
	d="
M215.883179,92.973793 
	C211.965759,94.008125 208.078415,94.984787 204.169952,95.078293 
	C199.299667,95.194801 197.465958,92.854774 197.280289,87.015007 
	C203.214096,87.015007 209.142624,87.015007 215.536743,87.076752 
	C215.969513,88.933739 215.936691,90.728973 215.883179,92.973793 
z"/>
<path fill="#231F21" opacity="1.000000" stroke="none" 
	d="
M206.546692,40.292114 
	C203.743622,40.728790 201.362045,41.110443 197.572418,41.717735 
	C201.825027,36.038410 205.768524,32.909412 211.660522,33.200550 
	C215.316589,33.381199 217.220734,35.637676 218.622421,40.237083 
	C214.298660,40.237083 210.633423,40.237083 206.546692,40.292114 
z"/>
<path fill="#212F22" opacity="1.000000" stroke="none" 
	d="
M254.054901,93.939270 
	C256.090851,86.653908 258.425690,79.183891 260.760559,71.713875 
	C261.086761,71.792336 261.412964,71.870796 261.739166,71.949265 
	C261.739166,76.974419 261.739166,81.999580 261.662750,87.477676 
	C259.175507,89.871941 256.764679,91.813271 254.054901,93.939270 
z"/>
<path fill="#0FC831" opacity="1.000000" stroke="none" 
	d="
M174.789124,55.927673 
	C177.007339,56.921379 179.258911,57.726715 180.808151,59.247524 
	C181.334106,59.763836 180.526611,62.834866 179.549225,63.406742 
	C178.071976,64.271088 175.583679,64.690102 174.107117,64.018539 
	C170.514114,62.384388 170.987946,59.539337 173.319672,56.492355 
	C173.874496,56.152790 174.211029,56.086071 174.789124,55.927673 
z"/>
<path fill="#242123" opacity="1.000000" stroke="none" 
	d="
M207.455414,25.217478 
	C210.270355,24.610628 212.700943,23.898630 215.166794,23.742115 
	C216.116806,23.681812 217.146973,24.884466 218.140625,25.511692 
	C217.345215,26.239244 216.635376,27.455742 215.740051,27.612434 
	C211.058868,28.431726 206.330597,28.982079 201.078079,28.820097 
	C203.080429,27.658072 205.082779,26.496046 207.455414,25.217478 
z"/>
<path fill="#232422" opacity="1.000000" stroke="none" 
	d="
M155.562546,74.933365 
	C155.809128,75.598488 155.696808,76.143539 155.001892,76.781509 
	C151.590942,76.594742 148.762558,76.315063 145.934189,76.035385 
	C145.605774,75.230804 145.277359,74.426216 144.937805,73.290390 
	C148.352310,73.577202 151.777985,74.195259 155.562546,74.933365 
z"/>
<path fill="#212F22" opacity="1.000000" stroke="none" 
	d="
M253.256943,95.720123 
	C253.217712,95.573997 253.333939,95.176193 253.712097,94.602448 
	C253.786804,94.773827 253.599594,95.121140 253.256943,95.720123 
z"/>
<path fill="#232020" opacity="1.000000" stroke="none" 
	d="
M270.397461,64.800919 
	C270.415649,64.903122 270.325623,64.492455 270.361938,64.285477 
	C270.365570,64.284348 270.359222,64.491081 270.397461,64.800919 
z"/>
<path fill="#2A2D30" opacity="1.000000" stroke="none" 
	d="
M197.920227,67.938217 
	C197.277649,68.641937 196.405411,69.086098 195.254272,69.614410 
	C192.570938,69.469284 190.166489,69.240013 187.709244,69.005707 
	C190.184662,65.023132 192.991928,64.678505 197.920227,67.938217 
z"/>
<path fill="#253B2C" opacity="1.000000" stroke="none" 
	d="
M187.962494,78.142990 
	C188.138733,79.113182 188.005234,80.199501 187.758850,81.679886 
	C186.604675,82.073959 185.563431,82.073959 182.930679,82.073959 
	C185.239273,80.208900 186.446030,79.234001 187.962494,78.142990 
z"/>
<path fill="#2B2B31" opacity="1.000000" stroke="none" 
	d="
M166.940048,72.087646 
	C166.919861,71.787048 167.012589,71.266136 167.279633,70.393494 
	C167.320267,70.650291 167.186615,71.258812 166.940048,72.087646 
z"/>
<path fill="#2A2A30" opacity="1.000000" stroke="none" 
	d="
M257.279419,51.318699 
	C252.671722,49.194153 248.345245,47.241520 243.744995,45.165329 
	C244.993088,41.458637 248.061722,41.083771 251.178940,41.292995 
	C255.476120,41.581417 259.673828,46.694057 260.716614,52.864246 
	C259.514587,52.341061 258.537628,51.915836 257.279419,51.318699 
z"/>
<path fill="#2A2A2F" opacity="1.000000" stroke="none" 
	d="
M251.942352,35.160904 
	C250.595139,34.158733 249.564301,33.304237 248.115707,32.103458 
	C253.526672,30.851582 259.739868,35.121620 261.703644,41.046474 
	C258.317047,38.989086 255.287888,37.148830 251.942352,35.160904 
z"/>
<path fill="#282E2E" opacity="1.000000" stroke="none" 
	d="
M238.899475,88.646393 
	C237.284500,88.442383 235.649246,87.854111 233.710373,87.159973 
	C233.406754,84.194572 233.406754,81.335037 233.406754,78.475494 
	C233.971970,78.353271 234.537170,78.231049 235.102386,78.108818 
	C236.361328,81.493256 237.620270,84.877693 238.899475,88.646393 
z"/>
<path fill="#1F4C27" opacity="1.000000" stroke="none" 
	d="
M233.286957,76.174866 
	C233.109009,74.757408 232.931061,73.339951 232.753113,71.922501 
	C233.080551,71.826355 233.408005,71.730217 233.735458,71.634071 
	C234.176971,72.873886 234.618484,74.113693 234.616486,75.712791 
	C233.877640,76.106346 233.582306,76.140602 233.286957,76.174866 
z"/>
<path fill="#282E2E" opacity="1.000000" stroke="none" 
	d="
M233.401215,76.557877 
	C233.582306,76.140602 233.877640,76.106346 234.617935,76.041222 
	C234.547104,76.320534 234.031281,76.630714 233.401215,76.557877 
z"/>
<path fill="#2A3031" opacity="1.000000" stroke="none" 
	d="
M120.792130,77.307747 
	C121.388214,81.667809 122.430573,85.828682 121.809677,89.724480 
	C121.493385,91.708977 118.414574,94.193169 116.180763,94.711479 
	C112.841370,95.486320 110.633621,92.846298 110.097137,89.525047 
	C109.703453,87.087852 109.574791,84.536003 109.813072,82.082359 
	C110.466400,75.354874 114.675117,73.431641 120.792130,77.307747 
z"/>
<path fill="#293431" opacity="1.000000" stroke="none" 
	d="
M351.332550,81.002335 
	C348.455353,81.115791 346.990784,79.846619 348.626923,77.840515 
	C349.995880,76.162018 352.696320,74.307945 354.502869,74.576729 
	C356.618988,74.891556 358.405670,77.420547 360.335266,78.989098 
	C360.036743,79.661926 359.738220,80.334763 359.439697,81.007591 
	C356.882629,81.007591 354.325562,81.007591 351.332550,81.002335 
z"/>
<path fill="#293531" opacity="1.000000" stroke="none" 
	d="
M287.173889,89.053474 
	C288.328217,88.127510 289.253906,87.105217 290.274536,86.999451 
	C292.427856,86.776291 294.630829,87.032829 296.813416,87.092560 
	C296.450409,89.133270 296.777008,92.055977 295.561462,93.006393 
	C293.772675,94.405045 290.882233,94.727364 288.464630,94.716476 
	C287.964478,94.714233 287.479950,91.244164 287.173889,89.053474 
z"/>
<path fill="#242B25" opacity="1.000000" stroke="none" 
	d="
M205.873505,75.043732 
	C207.244110,76.722389 208.266586,78.244370 209.858337,80.613754 
	C204.943939,80.613754 201.271805,80.613754 197.591843,80.613754 
	C197.873947,75.121178 199.929749,73.653793 205.873505,75.043732 
z"/>
<path fill="#283430" opacity="1.000000" stroke="none" 
	d="
M145.967667,76.413300 
	C148.762558,76.315063 151.590942,76.594742 154.818146,76.996613 
	C154.947647,78.223129 154.951797,79.517082 154.347244,80.388977 
	C153.349808,81.827507 151.959106,82.993362 150.734177,84.274155 
	C149.540909,83.025398 148.163986,81.899940 147.215408,80.486923 
	C146.519592,79.450409 146.385559,78.036774 145.967667,76.413300 
z"/>
</svg>